<svg xmlns="http://www.w3.org/2000/svg" version="1.1" xmlns:xlink="http://www.w3.org/1999/xlink" xmlns:svgjs="http://svgjs.com/svgjs" width="1440" height="741" preserveAspectRatio="none" viewBox="0 0 1440 741"><g mask="url(&quot;#SvgjsMask1849&quot;)" fill="none"><rect width="1440" height="741" x="0" y="0" fill="url(#SvgjsRadialGradient1850)"></rect><path d="M62.63 -11.13L117.19 20.37L117.19 83.37L62.63 114.87L8.07 83.37L8.07 20.37zM62.63 177.87L117.19 209.37L117.19 272.37L62.63 303.87L8.07 272.37L8.07 209.37zM117.19 272.37L171.75 303.87L171.75 366.87L117.19 398.37L62.63 366.87L62.63 303.87zM117.19 650.37L171.75 681.87L171.75 744.87L117.19 776.37L62.63 744.87L62.63 681.87zM226.31 461.37L280.87 492.87L280.87 555.87L226.31 587.37L171.75 555.87L171.75 492.87zM335.44 83.37L390 114.87L390 177.87L335.44 209.37L280.87 177.87L280.87 114.87zM280.87 177.87L335.44 209.37L335.44 272.37L280.87 303.87L226.31 272.37L226.31 209.37zM335.44 272.37L390 303.87L390 366.87L335.44 398.37L280.87 366.87L280.87 303.87zM280.87 366.87L335.44 398.37L335.44 461.37L280.87 492.87L226.31 461.37L226.31 398.37zM335.44 650.37L390 681.87L390 744.87L335.44 776.37L280.87 744.87L280.87 681.87zM280.87 744.87L335.44 776.37L335.44 839.37L280.87 870.87L226.31 839.37L226.31 776.37zM390 -11.13L444.56 20.37L444.56 83.37L390 114.87L335.44 83.37L335.44 20.37zM390 177.87L444.56 209.37L444.56 272.37L390 303.87L335.44 272.37L335.44 209.37zM390 366.87L444.56 398.37L444.56 461.37L390 492.87L335.44 461.37L335.44 398.37zM390 555.87L444.56 587.37L444.56 650.37L390 681.87L335.44 650.37L335.44 587.37zM499.12 555.87L553.68 587.37L553.68 650.37L499.12 681.87L444.56 650.37L444.56 587.37zM608.24 177.87L662.8 209.37L662.8 272.37L608.24 303.87L553.68 272.37L553.68 209.37zM608.24 555.87L662.8 587.37L662.8 650.37L608.24 681.87L553.68 650.37L553.68 587.37zM608.24 744.87L662.8 776.37L662.8 839.37L608.24 870.87L553.68 839.37L553.68 776.37zM717.36 177.87L771.92 209.37L771.92 272.37L717.36 303.87L662.8 272.37L662.8 209.37zM771.92 272.37L826.49 303.87L826.49 366.87L771.92 398.37L717.36 366.87L717.36 303.87zM771.92 461.37L826.49 492.87L826.49 555.87L771.92 587.37L717.36 555.87L717.36 492.87zM717.36 555.87L771.92 587.37L771.92 650.37L717.36 681.87L662.8 650.37L662.8 587.37zM990.17 461.37L1044.73 492.87L1044.73 555.87L990.17 587.37L935.61 555.87L935.61 492.87zM1153.85 -11.13L1208.41 20.37L1208.41 83.37L1153.85 114.87L1099.29 83.37L1099.29 20.37zM1317.54 272.37L1372.1 303.87L1372.1 366.87L1317.54 398.37L1262.98 366.87L1262.98 303.87zM1481.22 177.87L1535.78 209.37L1535.78 272.37L1481.22 303.87L1426.66 272.37L1426.66 209.37zM1535.78 272.37L1590.34 303.87L1590.34 366.87L1535.78 398.37L1481.22 366.87L1481.22 303.87zM1535.78 461.37L1590.34 492.87L1590.34 555.87L1535.78 587.37L1481.22 555.87L1481.22 492.87z" stroke="#03305d" stroke-width="2"></path><path d="M56.33 -11.13 a6.3 6.3 0 1 0 12.6 0 a6.3 6.3 0 1 0 -12.6 0zM110.89 20.37 a6.3 6.3 0 1 0 12.6 0 a6.3 6.3 0 1 0 -12.6 0zM110.89 83.37 a6.3 6.3 0 1 0 12.6 0 a6.3 6.3 0 1 0 -12.6 0zM56.33 114.87 a6.3 6.3 0 1 0 12.6 0 a6.3 6.3 0 1 0 -12.6 0zM1.77 83.37 a6.3 6.3 0 1 0 12.6 0 a6.3 6.3 0 1 0 -12.6 0zM1.77 20.37 a6.3 6.3 0 1 0 12.6 0 a6.3 6.3 0 1 0 -12.6 0zM56.33 177.87 a6.3 6.3 0 1 0 12.6 0 a6.3 6.3 0 1 0 -12.6 0zM110.89 209.37 a6.3 6.3 0 1 0 12.6 0 a6.3 6.3 0 1 0 -12.6 0zM110.89 272.37 a6.3 6.3 0 1 0 12.6 0 a6.3 6.3 0 1 0 -12.6 0zM56.33 303.87 a6.3 6.3 0 1 0 12.6 0 a6.3 6.3 0 1 0 -12.6 0zM1.77 272.37 a6.3 6.3 0 1 0 12.6 0 a6.3 6.3 0 1 0 -12.6 0zM1.77 209.37 a6.3 6.3 0 1 0 12.6 0 a6.3 6.3 0 1 0 -12.6 0zM165.45 303.87 a6.3 6.3 0 1 0 12.6 0 a6.3 6.3 0 1 0 -12.6 0zM165.45 366.87 a6.3 6.3 0 1 0 12.6 0 a6.3 6.3 0 1 0 -12.6 0zM110.89 398.37 a6.3 6.3 0 1 0 12.6 0 a6.3 6.3 0 1 0 -12.6 0zM56.33 366.87 a6.3 6.3 0 1 0 12.6 0 a6.3 6.3 0 1 0 -12.6 0zM110.89 650.37 a6.3 6.3 0 1 0 12.6 0 a6.3 6.3 0 1 0 -12.6 0zM165.45 681.87 a6.3 6.3 0 1 0 12.6 0 a6.3 6.3 0 1 0 -12.6 0zM165.45 744.87 a6.3 6.3 0 1 0 12.6 0 a6.3 6.3 0 1 0 -12.6 0zM110.89 776.37 a6.3 6.3 0 1 0 12.6 0 a6.3 6.3 0 1 0 -12.6 0zM56.33 744.87 a6.3 6.3 0 1 0 12.6 0 a6.3 6.3 0 1 0 -12.6 0zM56.33 681.87 a6.3 6.3 0 1 0 12.6 0 a6.3 6.3 0 1 0 -12.6 0zM220.01 461.37 a6.3 6.3 0 1 0 12.6 0 a6.3 6.3 0 1 0 -12.6 0zM274.57 492.87 a6.3 6.3 0 1 0 12.6 0 a6.3 6.3 0 1 0 -12.6 0zM274.57 555.87 a6.3 6.3 0 1 0 12.6 0 a6.3 6.3 0 1 0 -12.6 0zM220.01 587.37 a6.3 6.3 0 1 0 12.6 0 a6.3 6.3 0 1 0 -12.6 0zM165.45 555.87 a6.3 6.3 0 1 0 12.6 0 a6.3 6.3 0 1 0 -12.6 0zM165.45 492.87 a6.3 6.3 0 1 0 12.6 0 a6.3 6.3 0 1 0 -12.6 0zM329.14 83.37 a6.3 6.3 0 1 0 12.6 0 a6.3 6.3 0 1 0 -12.6 0zM383.7 114.87 a6.3 6.3 0 1 0 12.6 0 a6.3 6.3 0 1 0 -12.6 0zM383.7 177.87 a6.3 6.3 0 1 0 12.6 0 a6.3 6.3 0 1 0 -12.6 0zM329.14 209.37 a6.3 6.3 0 1 0 12.6 0 a6.3 6.3 0 1 0 -12.6 0zM274.57 177.87 a6.3 6.3 0 1 0 12.6 0 a6.3 6.3 0 1 0 -12.6 0zM274.57 114.87 a6.3 6.3 0 1 0 12.6 0 a6.3 6.3 0 1 0 -12.6 0zM329.14 272.37 a6.3 6.3 0 1 0 12.6 0 a6.3 6.3 0 1 0 -12.6 0zM274.57 303.87 a6.3 6.3 0 1 0 12.6 0 a6.3 6.3 0 1 0 -12.6 0zM220.01 272.37 a6.3 6.3 0 1 0 12.6 0 a6.3 6.3 0 1 0 -12.6 0zM220.01 209.37 a6.3 6.3 0 1 0 12.6 0 a6.3 6.3 0 1 0 -12.6 0zM383.7 303.87 a6.3 6.3 0 1 0 12.6 0 a6.3 6.3 0 1 0 -12.6 0zM383.7 366.87 a6.3 6.3 0 1 0 12.6 0 a6.3 6.3 0 1 0 -12.6 0zM329.14 398.37 a6.3 6.3 0 1 0 12.6 0 a6.3 6.3 0 1 0 -12.6 0zM274.57 366.87 a6.3 6.3 0 1 0 12.6 0 a6.3 6.3 0 1 0 -12.6 0zM329.14 461.37 a6.3 6.3 0 1 0 12.6 0 a6.3 6.3 0 1 0 -12.6 0zM220.01 398.37 a6.3 6.3 0 1 0 12.6 0 a6.3 6.3 0 1 0 -12.6 0zM329.14 650.37 a6.3 6.3 0 1 0 12.6 0 a6.3 6.3 0 1 0 -12.6 0zM383.7 681.87 a6.3 6.3 0 1 0 12.6 0 a6.3 6.3 0 1 0 -12.6 0zM383.7 744.87 a6.3 6.3 0 1 0 12.6 0 a6.3 6.3 0 1 0 -12.6 0zM329.14 776.37 a6.3 6.3 0 1 0 12.6 0 a6.3 6.3 0 1 0 -12.6 0zM274.57 744.87 a6.3 6.3 0 1 0 12.6 0 a6.3 6.3 0 1 0 -12.6 0zM274.57 681.87 a6.3 6.3 0 1 0 12.6 0 a6.3 6.3 0 1 0 -12.6 0zM329.14 839.37 a6.3 6.3 0 1 0 12.6 0 a6.3 6.3 0 1 0 -12.6 0zM274.57 870.87 a6.3 6.3 0 1 0 12.6 0 a6.3 6.3 0 1 0 -12.6 0zM220.01 839.37 a6.3 6.3 0 1 0 12.6 0 a6.3 6.3 0 1 0 -12.6 0zM220.01 776.37 a6.3 6.3 0 1 0 12.6 0 a6.3 6.3 0 1 0 -12.6 0zM383.7 -11.13 a6.3 6.3 0 1 0 12.6 0 a6.3 6.3 0 1 0 -12.6 0zM438.26 20.37 a6.3 6.3 0 1 0 12.6 0 a6.3 6.3 0 1 0 -12.6 0zM438.26 83.37 a6.3 6.3 0 1 0 12.6 0 a6.3 6.3 0 1 0 -12.6 0zM329.14 20.37 a6.3 6.3 0 1 0 12.6 0 a6.3 6.3 0 1 0 -12.6 0zM438.26 209.37 a6.3 6.3 0 1 0 12.6 0 a6.3 6.3 0 1 0 -12.6 0zM438.26 272.37 a6.3 6.3 0 1 0 12.6 0 a6.3 6.3 0 1 0 -12.6 0zM438.26 398.37 a6.3 6.3 0 1 0 12.6 0 a6.3 6.3 0 1 0 -12.6 0zM438.26 461.37 a6.3 6.3 0 1 0 12.6 0 a6.3 6.3 0 1 0 -12.6 0zM383.7 492.87 a6.3 6.3 0 1 0 12.6 0 a6.3 6.3 0 1 0 -12.6 0zM383.7 555.87 a6.3 6.3 0 1 0 12.6 0 a6.3 6.3 0 1 0 -12.6 0zM438.26 587.37 a6.3 6.3 0 1 0 12.6 0 a6.3 6.3 0 1 0 -12.6 0zM438.26 650.37 a6.3 6.3 0 1 0 12.6 0 a6.3 6.3 0 1 0 -12.6 0zM329.14 587.37 a6.3 6.3 0 1 0 12.6 0 a6.3 6.3 0 1 0 -12.6 0zM492.82 555.87 a6.3 6.3 0 1 0 12.6 0 a6.3 6.3 0 1 0 -12.6 0zM547.38 587.37 a6.3 6.3 0 1 0 12.6 0 a6.3 6.3 0 1 0 -12.6 0zM547.38 650.37 a6.3 6.3 0 1 0 12.6 0 a6.3 6.3 0 1 0 -12.6 0zM492.82 681.87 a6.3 6.3 0 1 0 12.6 0 a6.3 6.3 0 1 0 -12.6 0zM601.94 177.87 a6.3 6.3 0 1 0 12.6 0 a6.3 6.3 0 1 0 -12.6 0zM656.5 209.37 a6.3 6.3 0 1 0 12.6 0 a6.3 6.3 0 1 0 -12.6 0zM656.5 272.37 a6.3 6.3 0 1 0 12.6 0 a6.3 6.3 0 1 0 -12.6 0zM601.94 303.87 a6.3 6.3 0 1 0 12.6 0 a6.3 6.3 0 1 0 -12.6 0zM547.38 272.37 a6.3 6.3 0 1 0 12.6 0 a6.3 6.3 0 1 0 -12.6 0zM547.38 209.37 a6.3 6.3 0 1 0 12.6 0 a6.3 6.3 0 1 0 -12.6 0zM601.94 555.87 a6.3 6.3 0 1 0 12.6 0 a6.3 6.3 0 1 0 -12.6 0zM656.5 587.37 a6.3 6.3 0 1 0 12.6 0 a6.3 6.3 0 1 0 -12.6 0zM656.5 650.37 a6.3 6.3 0 1 0 12.6 0 a6.3 6.3 0 1 0 -12.6 0zM601.94 681.87 a6.3 6.3 0 1 0 12.6 0 a6.3 6.3 0 1 0 -12.6 0zM601.94 744.87 a6.3 6.3 0 1 0 12.6 0 a6.3 6.3 0 1 0 -12.6 0zM656.5 776.37 a6.3 6.3 0 1 0 12.6 0 a6.3 6.3 0 1 0 -12.6 0zM656.5 839.37 a6.3 6.3 0 1 0 12.6 0 a6.3 6.3 0 1 0 -12.6 0zM601.94 870.87 a6.3 6.3 0 1 0 12.6 0 a6.3 6.3 0 1 0 -12.6 0zM547.38 839.37 a6.3 6.3 0 1 0 12.6 0 a6.3 6.3 0 1 0 -12.6 0zM547.38 776.37 a6.3 6.3 0 1 0 12.6 0 a6.3 6.3 0 1 0 -12.6 0zM711.06 177.87 a6.3 6.3 0 1 0 12.6 0 a6.3 6.3 0 1 0 -12.6 0zM765.62 209.37 a6.3 6.3 0 1 0 12.6 0 a6.3 6.3 0 1 0 -12.6 0zM765.62 272.37 a6.3 6.3 0 1 0 12.6 0 a6.3 6.3 0 1 0 -12.6 0zM711.06 303.87 a6.3 6.3 0 1 0 12.6 0 a6.3 6.3 0 1 0 -12.6 0zM820.19 303.87 a6.3 6.3 0 1 0 12.6 0 a6.3 6.3 0 1 0 -12.6 0zM820.19 366.87 a6.3 6.3 0 1 0 12.6 0 a6.3 6.3 0 1 0 -12.6 0zM765.62 398.37 a6.3 6.3 0 1 0 12.6 0 a6.3 6.3 0 1 0 -12.6 0zM711.06 366.87 a6.3 6.3 0 1 0 12.6 0 a6.3 6.3 0 1 0 -12.6 0zM765.62 461.37 a6.3 6.3 0 1 0 12.6 0 a6.3 6.3 0 1 0 -12.6 0zM820.19 492.87 a6.3 6.3 0 1 0 12.6 0 a6.3 6.3 0 1 0 -12.6 0zM820.19 555.87 a6.3 6.3 0 1 0 12.6 0 a6.3 6.3 0 1 0 -12.6 0zM765.62 587.37 a6.3 6.3 0 1 0 12.6 0 a6.3 6.3 0 1 0 -12.6 0zM711.06 555.87 a6.3 6.3 0 1 0 12.6 0 a6.3 6.3 0 1 0 -12.6 0zM711.06 492.87 a6.3 6.3 0 1 0 12.6 0 a6.3 6.3 0 1 0 -12.6 0zM765.62 650.37 a6.3 6.3 0 1 0 12.6 0 a6.3 6.3 0 1 0 -12.6 0zM711.06 681.87 a6.3 6.3 0 1 0 12.6 0 a6.3 6.3 0 1 0 -12.6 0zM983.87 461.37 a6.3 6.3 0 1 0 12.6 0 a6.3 6.3 0 1 0 -12.6 0zM1038.43 492.87 a6.3 6.3 0 1 0 12.6 0 a6.3 6.3 0 1 0 -12.6 0zM1038.43 555.87 a6.3 6.3 0 1 0 12.6 0 a6.3 6.3 0 1 0 -12.6 0zM983.87 587.37 a6.3 6.3 0 1 0 12.6 0 a6.3 6.3 0 1 0 -12.6 0zM929.31 555.87 a6.3 6.3 0 1 0 12.6 0 a6.3 6.3 0 1 0 -12.6 0zM929.31 492.87 a6.3 6.3 0 1 0 12.6 0 a6.3 6.3 0 1 0 -12.6 0zM1147.55 -11.13 a6.3 6.3 0 1 0 12.6 0 a6.3 6.3 0 1 0 -12.6 0zM1202.11 20.37 a6.3 6.3 0 1 0 12.6 0 a6.3 6.3 0 1 0 -12.6 0zM1202.11 83.37 a6.3 6.3 0 1 0 12.6 0 a6.3 6.3 0 1 0 -12.6 0zM1147.55 114.87 a6.3 6.3 0 1 0 12.6 0 a6.3 6.3 0 1 0 -12.6 0zM1092.99 83.37 a6.3 6.3 0 1 0 12.6 0 a6.3 6.3 0 1 0 -12.6 0zM1092.99 20.37 a6.3 6.3 0 1 0 12.6 0 a6.3 6.3 0 1 0 -12.6 0zM1311.24 272.37 a6.3 6.3 0 1 0 12.6 0 a6.3 6.3 0 1 0 -12.6 0zM1365.8 303.87 a6.3 6.3 0 1 0 12.6 0 a6.3 6.3 0 1 0 -12.6 0zM1365.8 366.87 a6.3 6.3 0 1 0 12.6 0 a6.3 6.3 0 1 0 -12.6 0zM1311.24 398.37 a6.3 6.3 0 1 0 12.6 0 a6.3 6.3 0 1 0 -12.6 0zM1256.68 366.87 a6.3 6.3 0 1 0 12.6 0 a6.3 6.3 0 1 0 -12.6 0zM1256.68 303.87 a6.3 6.3 0 1 0 12.6 0 a6.3 6.3 0 1 0 -12.6 0zM1474.92 177.87 a6.3 6.3 0 1 0 12.6 0 a6.3 6.3 0 1 0 -12.6 0zM1529.48 209.37 a6.3 6.3 0 1 0 12.6 0 a6.3 6.3 0 1 0 -12.6 0zM1529.48 272.37 a6.3 6.3 0 1 0 12.6 0 a6.3 6.3 0 1 0 -12.6 0zM1474.92 303.87 a6.3 6.3 0 1 0 12.6 0 a6.3 6.3 0 1 0 -12.6 0zM1420.36 272.37 a6.3 6.3 0 1 0 12.6 0 a6.3 6.3 0 1 0 -12.6 0zM1420.36 209.37 a6.3 6.3 0 1 0 12.6 0 a6.3 6.3 0 1 0 -12.6 0zM1584.04 303.87 a6.3 6.3 0 1 0 12.6 0 a6.3 6.3 0 1 0 -12.6 0zM1584.04 366.87 a6.3 6.3 0 1 0 12.6 0 a6.3 6.3 0 1 0 -12.6 0zM1529.48 398.37 a6.3 6.3 0 1 0 12.6 0 a6.3 6.3 0 1 0 -12.6 0zM1474.92 366.87 a6.3 6.3 0 1 0 12.6 0 a6.3 6.3 0 1 0 -12.6 0zM1529.48 461.37 a6.3 6.3 0 1 0 12.6 0 a6.3 6.3 0 1 0 -12.6 0zM1584.04 492.87 a6.3 6.3 0 1 0 12.6 0 a6.3 6.3 0 1 0 -12.6 0zM1584.04 555.87 a6.3 6.3 0 1 0 12.6 0 a6.3 6.3 0 1 0 -12.6 0zM1529.48 587.37 a6.3 6.3 0 1 0 12.6 0 a6.3 6.3 0 1 0 -12.6 0zM1474.92 555.87 a6.3 6.3 0 1 0 12.6 0 a6.3 6.3 0 1 0 -12.6 0zM1474.92 492.87 a6.3 6.3 0 1 0 12.6 0 a6.3 6.3 0 1 0 -12.6 0z" fill="#03305d"></path><path d="M95.43 242.03L149.12 273.03L149.12 335.03L95.43 366.03L41.73 335.03L41.73 273.03zM41.73 335.03L95.43 366.03L95.43 428.03L41.73 459.03L-11.97 428.03L-11.97 366.03zM95.43 428.03L149.12 459.03L149.12 521.03L95.43 552.03L41.73 521.03L41.73 459.03zM95.43 614.03L149.12 645.03L149.12 707.03L95.43 738.03L41.73 707.03L41.73 645.03zM202.82 56.03L256.51 87.03L256.51 149.03L202.82 180.03L149.12 149.03L149.12 87.03zM149.12 335.03L202.82 366.03L202.82 428.03L149.12 459.03L95.43 428.03L95.43 366.03zM202.82 428.03L256.51 459.03L256.51 521.03L202.82 552.03L149.12 521.03L149.12 459.03zM149.12 521.03L202.82 552.03L202.82 614.03L149.12 645.03L95.43 614.03L95.43 552.03zM202.82 614.03L256.51 645.03L256.51 707.03L202.82 738.03L149.12 707.03L149.12 645.03zM256.51 149.03L310.21 180.03L310.21 242.03L256.51 273.03L202.82 242.03L202.82 180.03zM310.21 242.03L363.9 273.03L363.9 335.03L310.21 366.03L256.51 335.03L256.51 273.03zM310.21 428.03L363.9 459.03L363.9 521.03L310.21 552.03L256.51 521.03L256.51 459.03zM256.51 707.03L310.21 738.03L310.21 800.03L256.51 831.03L202.82 800.03L202.82 738.03zM363.9 149.03L417.6 180.03L417.6 242.03L363.9 273.03L310.21 242.03L310.21 180.03zM417.6 242.03L471.29 273.03L471.29 335.03L417.6 366.03L363.9 335.03L363.9 273.03zM363.9 335.03L417.6 366.03L417.6 428.03L363.9 459.03L310.21 428.03L310.21 366.03zM417.6 428.03L471.29 459.03L471.29 521.03L417.6 552.03L363.9 521.03L363.9 459.03zM471.29 -36.97L524.99 -5.97L524.99 56.03L471.29 87.03L417.6 56.03L417.6 -5.97zM471.29 149.03L524.99 180.03L524.99 242.03L471.29 273.03L417.6 242.03L417.6 180.03zM471.29 335.03L524.99 366.03L524.99 428.03L471.29 459.03L417.6 428.03L417.6 366.03zM471.29 521.03L524.99 552.03L524.99 614.03L471.29 645.03L417.6 614.03L417.6 552.03zM524.99 614.03L578.68 645.03L578.68 707.03L524.99 738.03L471.29 707.03L471.29 645.03zM471.29 707.03L524.99 738.03L524.99 800.03L471.29 831.03L417.6 800.03L417.6 738.03zM578.68 -36.97L632.38 -5.97L632.38 56.03L578.68 87.03L524.99 56.03L524.99 -5.97zM578.68 149.03L632.38 180.03L632.38 242.03L578.68 273.03L524.99 242.03L524.99 180.03zM578.68 335.03L632.38 366.03L632.38 428.03L578.68 459.03L524.99 428.03L524.99 366.03zM632.38 428.03L686.07 459.03L686.07 521.03L632.38 552.03L578.68 521.03L578.68 459.03zM578.68 521.03L632.38 552.03L632.38 614.03L578.68 645.03L524.99 614.03L524.99 552.03zM632.38 614.03L686.07 645.03L686.07 707.03L632.38 738.03L578.68 707.03L578.68 645.03zM739.77 56.03L793.46 87.03L793.46 149.03L739.77 180.03L686.07 149.03L686.07 87.03zM686.07 521.03L739.77 552.03L739.77 614.03L686.07 645.03L632.38 614.03L632.38 552.03zM739.77 614.03L793.46 645.03L793.46 707.03L739.77 738.03L686.07 707.03L686.07 645.03zM793.46 149.03L847.16 180.03L847.16 242.03L793.46 273.03L739.77 242.03L739.77 180.03zM793.46 521.03L847.16 552.03L847.16 614.03L793.46 645.03L739.77 614.03L739.77 552.03zM900.85 -36.97L954.55 -5.97L954.55 56.03L900.85 87.03L847.16 56.03L847.16 -5.97zM900.85 149.03L954.55 180.03L954.55 242.03L900.85 273.03L847.16 242.03L847.16 180.03zM900.85 521.03L954.55 552.03L954.55 614.03L900.85 645.03L847.16 614.03L847.16 552.03zM954.55 614.03L1008.24 645.03L1008.24 707.03L954.55 738.03L900.85 707.03L900.85 645.03zM1008.24 -36.97L1061.94 -5.97L1061.94 56.03L1008.24 87.03L954.55 56.03L954.55 -5.97zM1061.94 56.03L1115.63 87.03L1115.63 149.03L1061.94 180.03L1008.24 149.03L1008.24 87.03zM1008.24 149.03L1061.94 180.03L1061.94 242.03L1008.24 273.03L954.55 242.03L954.55 180.03zM1061.94 242.03L1115.63 273.03L1115.63 335.03L1061.94 366.03L1008.24 335.03L1008.24 273.03zM1008.24 335.03L1061.94 366.03L1061.94 428.03L1008.24 459.03L954.55 428.03L954.55 366.03zM1061.94 428.03L1115.63 459.03L1115.63 521.03L1061.94 552.03L1008.24 521.03L1008.24 459.03zM1061.94 614.03L1115.63 645.03L1115.63 707.03L1061.94 738.03L1008.24 707.03L1008.24 645.03zM1169.33 428.03L1223.02 459.03L1223.02 521.03L1169.33 552.03L1115.63 521.03L1115.63 459.03zM1115.63 521.03L1169.33 552.03L1169.33 614.03L1115.63 645.03L1061.94 614.03L1061.94 552.03zM1223.02 -36.97L1276.72 -5.97L1276.72 56.03L1223.02 87.03L1169.33 56.03L1169.33 -5.97zM1276.72 56.03L1330.41 87.03L1330.41 149.03L1276.72 180.03L1223.02 149.03L1223.02 87.03zM1223.02 335.03L1276.72 366.03L1276.72 428.03L1223.02 459.03L1169.33 428.03L1169.33 366.03zM1276.72 428.03L1330.41 459.03L1330.41 521.03L1276.72 552.03L1223.02 521.03L1223.02 459.03zM1384.11 56.03L1437.8 87.03L1437.8 149.03L1384.11 180.03L1330.41 149.03L1330.41 87.03zM1384.11 242.03L1437.8 273.03L1437.8 335.03L1384.11 366.03L1330.41 335.03L1330.41 273.03zM1330.41 335.03L1384.11 366.03L1384.11 428.03L1330.41 459.03L1276.72 428.03L1276.72 366.03zM1384.11 428.03L1437.8 459.03L1437.8 521.03L1384.11 552.03L1330.41 521.03L1330.41 459.03zM1384.11 614.03L1437.8 645.03L1437.8 707.03L1384.11 738.03L1330.41 707.03L1330.41 645.03zM1437.8 149.03L1491.5 180.03L1491.5 242.03L1437.8 273.03L1384.11 242.03L1384.11 180.03zM1491.5 242.03L1545.19 273.03L1545.19 335.03L1491.5 366.03L1437.8 335.03L1437.8 273.03zM1437.8 335.03L1491.5 366.03L1491.5 428.03L1437.8 459.03L1384.11 428.03L1384.11 366.03zM1491.5 614.03L1545.19 645.03L1545.19 707.03L1491.5 738.03L1437.8 707.03L1437.8 645.03zM1437.8 707.03L1491.5 738.03L1491.5 800.03L1437.8 831.03L1384.11 800.03L1384.11 738.03z" stroke="rgba(0, 29, 61, 1)" stroke-width="2"></path><path d="M89.23 242.03 a6.2 6.2 0 1 0 12.4 0 a6.2 6.2 0 1 0 -12.4 0zM142.92 273.03 a6.2 6.2 0 1 0 12.4 0 a6.2 6.2 0 1 0 -12.4 0zM142.92 335.03 a6.2 6.2 0 1 0 12.4 0 a6.2 6.2 0 1 0 -12.4 0zM89.23 366.03 a6.2 6.2 0 1 0 12.4 0 a6.2 6.2 0 1 0 -12.4 0zM35.53 335.03 a6.2 6.2 0 1 0 12.4 0 a6.2 6.2 0 1 0 -12.4 0zM35.53 273.03 a6.2 6.2 0 1 0 12.4 0 a6.2 6.2 0 1 0 -12.4 0zM89.23 428.03 a6.2 6.2 0 1 0 12.4 0 a6.2 6.2 0 1 0 -12.4 0zM35.53 459.03 a6.2 6.2 0 1 0 12.4 0 a6.2 6.2 0 1 0 -12.4 0zM-18.17 428.03 a6.2 6.2 0 1 0 12.4 0 a6.2 6.2 0 1 0 -12.4 0zM-18.17 366.03 a6.2 6.2 0 1 0 12.4 0 a6.2 6.2 0 1 0 -12.4 0zM142.92 459.03 a6.2 6.2 0 1 0 12.4 0 a6.2 6.2 0 1 0 -12.4 0zM142.92 521.03 a6.2 6.2 0 1 0 12.4 0 a6.2 6.2 0 1 0 -12.4 0zM89.23 552.03 a6.2 6.2 0 1 0 12.4 0 a6.2 6.2 0 1 0 -12.4 0zM35.53 521.03 a6.2 6.2 0 1 0 12.4 0 a6.2 6.2 0 1 0 -12.4 0zM89.23 614.03 a6.2 6.2 0 1 0 12.4 0 a6.2 6.2 0 1 0 -12.4 0zM142.92 645.03 a6.2 6.2 0 1 0 12.4 0 a6.2 6.2 0 1 0 -12.4 0zM142.92 707.03 a6.2 6.2 0 1 0 12.4 0 a6.2 6.2 0 1 0 -12.4 0zM89.23 738.03 a6.2 6.2 0 1 0 12.4 0 a6.2 6.2 0 1 0 -12.4 0zM35.53 707.03 a6.2 6.2 0 1 0 12.4 0 a6.2 6.2 0 1 0 -12.4 0zM35.53 645.03 a6.2 6.2 0 1 0 12.4 0 a6.2 6.2 0 1 0 -12.4 0zM196.62 56.03 a6.2 6.2 0 1 0 12.4 0 a6.2 6.2 0 1 0 -12.4 0zM250.31 87.03 a6.2 6.2 0 1 0 12.4 0 a6.2 6.2 0 1 0 -12.4 0zM250.31 149.03 a6.2 6.2 0 1 0 12.4 0 a6.2 6.2 0 1 0 -12.4 0zM196.62 180.03 a6.2 6.2 0 1 0 12.4 0 a6.2 6.2 0 1 0 -12.4 0zM142.92 149.03 a6.2 6.2 0 1 0 12.4 0 a6.2 6.2 0 1 0 -12.4 0zM142.92 87.03 a6.2 6.2 0 1 0 12.4 0 a6.2 6.2 0 1 0 -12.4 0zM196.62 366.03 a6.2 6.2 0 1 0 12.4 0 a6.2 6.2 0 1 0 -12.4 0zM196.62 428.03 a6.2 6.2 0 1 0 12.4 0 a6.2 6.2 0 1 0 -12.4 0zM250.31 459.03 a6.2 6.2 0 1 0 12.4 0 a6.2 6.2 0 1 0 -12.4 0zM250.31 521.03 a6.2 6.2 0 1 0 12.4 0 a6.2 6.2 0 1 0 -12.4 0zM196.62 552.03 a6.2 6.2 0 1 0 12.4 0 a6.2 6.2 0 1 0 -12.4 0zM196.62 614.03 a6.2 6.2 0 1 0 12.4 0 a6.2 6.2 0 1 0 -12.4 0zM250.31 645.03 a6.2 6.2 0 1 0 12.4 0 a6.2 6.2 0 1 0 -12.4 0zM250.31 707.03 a6.2 6.2 0 1 0 12.4 0 a6.2 6.2 0 1 0 -12.4 0zM196.62 738.03 a6.2 6.2 0 1 0 12.4 0 a6.2 6.2 0 1 0 -12.4 0zM304.01 180.03 a6.2 6.2 0 1 0 12.4 0 a6.2 6.2 0 1 0 -12.4 0zM304.01 242.03 a6.2 6.2 0 1 0 12.4 0 a6.2 6.2 0 1 0 -12.4 0zM250.31 273.03 a6.2 6.2 0 1 0 12.4 0 a6.2 6.2 0 1 0 -12.4 0zM196.62 242.03 a6.2 6.2 0 1 0 12.4 0 a6.2 6.2 0 1 0 -12.4 0zM357.7 273.03 a6.2 6.2 0 1 0 12.4 0 a6.2 6.2 0 1 0 -12.4 0zM357.7 335.03 a6.2 6.2 0 1 0 12.4 0 a6.2 6.2 0 1 0 -12.4 0zM304.01 366.03 a6.2 6.2 0 1 0 12.4 0 a6.2 6.2 0 1 0 -12.4 0zM250.31 335.03 a6.2 6.2 0 1 0 12.4 0 a6.2 6.2 0 1 0 -12.4 0zM304.01 428.03 a6.2 6.2 0 1 0 12.4 0 a6.2 6.2 0 1 0 -12.4 0zM357.7 459.03 a6.2 6.2 0 1 0 12.4 0 a6.2 6.2 0 1 0 -12.4 0zM357.7 521.03 a6.2 6.2 0 1 0 12.4 0 a6.2 6.2 0 1 0 -12.4 0zM304.01 552.03 a6.2 6.2 0 1 0 12.4 0 a6.2 6.2 0 1 0 -12.4 0zM304.01 738.03 a6.2 6.2 0 1 0 12.4 0 a6.2 6.2 0 1 0 -12.4 0zM304.01 800.03 a6.2 6.2 0 1 0 12.4 0 a6.2 6.2 0 1 0 -12.4 0zM250.31 831.03 a6.2 6.2 0 1 0 12.4 0 a6.2 6.2 0 1 0 -12.4 0zM196.62 800.03 a6.2 6.2 0 1 0 12.4 0 a6.2 6.2 0 1 0 -12.4 0zM357.7 149.03 a6.2 6.2 0 1 0 12.4 0 a6.2 6.2 0 1 0 -12.4 0zM411.4 180.03 a6.2 6.2 0 1 0 12.4 0 a6.2 6.2 0 1 0 -12.4 0zM411.4 242.03 a6.2 6.2 0 1 0 12.4 0 a6.2 6.2 0 1 0 -12.4 0zM465.09 273.03 a6.2 6.2 0 1 0 12.4 0 a6.2 6.2 0 1 0 -12.4 0zM465.09 335.03 a6.2 6.2 0 1 0 12.4 0 a6.2 6.2 0 1 0 -12.4 0zM411.4 366.03 a6.2 6.2 0 1 0 12.4 0 a6.2 6.2 0 1 0 -12.4 0zM411.4 428.03 a6.2 6.2 0 1 0 12.4 0 a6.2 6.2 0 1 0 -12.4 0zM465.09 459.03 a6.2 6.2 0 1 0 12.4 0 a6.2 6.2 0 1 0 -12.4 0zM465.09 521.03 a6.2 6.2 0 1 0 12.4 0 a6.2 6.2 0 1 0 -12.4 0zM411.4 552.03 a6.2 6.2 0 1 0 12.4 0 a6.2 6.2 0 1 0 -12.4 0zM465.09 -36.97 a6.2 6.2 0 1 0 12.4 0 a6.2 6.2 0 1 0 -12.4 0zM518.79 -5.97 a6.2 6.2 0 1 0 12.4 0 a6.2 6.2 0 1 0 -12.4 0zM518.79 56.03 a6.2 6.2 0 1 0 12.4 0 a6.2 6.2 0 1 0 -12.4 0zM465.09 87.03 a6.2 6.2 0 1 0 12.4 0 a6.2 6.2 0 1 0 -12.4 0zM411.4 56.03 a6.2 6.2 0 1 0 12.4 0 a6.2 6.2 0 1 0 -12.4 0zM411.4 -5.97 a6.2 6.2 0 1 0 12.4 0 a6.2 6.2 0 1 0 -12.4 0zM465.09 149.03 a6.2 6.2 0 1 0 12.4 0 a6.2 6.2 0 1 0 -12.4 0zM518.79 180.03 a6.2 6.2 0 1 0 12.4 0 a6.2 6.2 0 1 0 -12.4 0zM518.79 242.03 a6.2 6.2 0 1 0 12.4 0 a6.2 6.2 0 1 0 -12.4 0zM518.79 366.03 a6.2 6.2 0 1 0 12.4 0 a6.2 6.2 0 1 0 -12.4 0zM518.79 428.03 a6.2 6.2 0 1 0 12.4 0 a6.2 6.2 0 1 0 -12.4 0zM518.79 552.03 a6.2 6.2 0 1 0 12.4 0 a6.2 6.2 0 1 0 -12.4 0zM518.79 614.03 a6.2 6.2 0 1 0 12.4 0 a6.2 6.2 0 1 0 -12.4 0zM465.09 645.03 a6.2 6.2 0 1 0 12.4 0 a6.2 6.2 0 1 0 -12.4 0zM411.4 614.03 a6.2 6.2 0 1 0 12.4 0 a6.2 6.2 0 1 0 -12.4 0zM572.48 645.03 a6.2 6.2 0 1 0 12.4 0 a6.2 6.2 0 1 0 -12.4 0zM572.48 707.03 a6.2 6.2 0 1 0 12.4 0 a6.2 6.2 0 1 0 -12.4 0zM518.79 738.03 a6.2 6.2 0 1 0 12.4 0 a6.2 6.2 0 1 0 -12.4 0zM465.09 707.03 a6.2 6.2 0 1 0 12.4 0 a6.2 6.2 0 1 0 -12.4 0zM518.79 800.03 a6.2 6.2 0 1 0 12.4 0 a6.2 6.2 0 1 0 -12.4 0zM465.09 831.03 a6.2 6.2 0 1 0 12.4 0 a6.2 6.2 0 1 0 -12.4 0zM411.4 800.03 a6.2 6.2 0 1 0 12.4 0 a6.2 6.2 0 1 0 -12.4 0zM411.4 738.03 a6.2 6.2 0 1 0 12.4 0 a6.2 6.2 0 1 0 -12.4 0zM572.48 -36.97 a6.2 6.2 0 1 0 12.4 0 a6.2 6.2 0 1 0 -12.4 0zM626.18 -5.97 a6.2 6.2 0 1 0 12.4 0 a6.2 6.2 0 1 0 -12.4 0zM626.18 56.03 a6.2 6.2 0 1 0 12.4 0 a6.2 6.2 0 1 0 -12.4 0zM572.48 87.03 a6.2 6.2 0 1 0 12.4 0 a6.2 6.2 0 1 0 -12.4 0zM572.48 149.03 a6.2 6.2 0 1 0 12.4 0 a6.2 6.2 0 1 0 -12.4 0zM626.18 180.03 a6.2 6.2 0 1 0 12.4 0 a6.2 6.2 0 1 0 -12.4 0zM626.18 242.03 a6.2 6.2 0 1 0 12.4 0 a6.2 6.2 0 1 0 -12.4 0zM572.48 273.03 a6.2 6.2 0 1 0 12.4 0 a6.2 6.2 0 1 0 -12.4 0zM572.48 335.03 a6.2 6.2 0 1 0 12.4 0 a6.2 6.2 0 1 0 -12.4 0zM626.18 366.03 a6.2 6.2 0 1 0 12.4 0 a6.2 6.2 0 1 0 -12.4 0zM626.18 428.03 a6.2 6.2 0 1 0 12.4 0 a6.2 6.2 0 1 0 -12.4 0zM572.48 459.03 a6.2 6.2 0 1 0 12.4 0 a6.2 6.2 0 1 0 -12.4 0zM679.87 459.03 a6.2 6.2 0 1 0 12.4 0 a6.2 6.2 0 1 0 -12.4 0zM679.87 521.03 a6.2 6.2 0 1 0 12.4 0 a6.2 6.2 0 1 0 -12.4 0zM626.18 552.03 a6.2 6.2 0 1 0 12.4 0 a6.2 6.2 0 1 0 -12.4 0zM572.48 521.03 a6.2 6.2 0 1 0 12.4 0 a6.2 6.2 0 1 0 -12.4 0zM626.18 614.03 a6.2 6.2 0 1 0 12.4 0 a6.2 6.2 0 1 0 -12.4 0zM679.87 645.03 a6.2 6.2 0 1 0 12.4 0 a6.2 6.2 0 1 0 -12.4 0zM679.87 707.03 a6.2 6.2 0 1 0 12.4 0 a6.2 6.2 0 1 0 -12.4 0zM626.18 738.03 a6.2 6.2 0 1 0 12.4 0 a6.2 6.2 0 1 0 -12.4 0zM733.57 56.03 a6.2 6.2 0 1 0 12.4 0 a6.2 6.2 0 1 0 -12.4 0zM787.26 87.03 a6.2 6.2 0 1 0 12.4 0 a6.2 6.2 0 1 0 -12.4 0zM787.26 149.03 a6.2 6.2 0 1 0 12.4 0 a6.2 6.2 0 1 0 -12.4 0zM733.57 180.03 a6.2 6.2 0 1 0 12.4 0 a6.2 6.2 0 1 0 -12.4 0zM679.87 149.03 a6.2 6.2 0 1 0 12.4 0 a6.2 6.2 0 1 0 -12.4 0zM679.87 87.03 a6.2 6.2 0 1 0 12.4 0 a6.2 6.2 0 1 0 -12.4 0zM733.57 552.03 a6.2 6.2 0 1 0 12.4 0 a6.2 6.2 0 1 0 -12.4 0zM733.57 614.03 a6.2 6.2 0 1 0 12.4 0 a6.2 6.2 0 1 0 -12.4 0zM787.26 645.03 a6.2 6.2 0 1 0 12.4 0 a6.2 6.2 0 1 0 -12.4 0zM787.26 707.03 a6.2 6.2 0 1 0 12.4 0 a6.2 6.2 0 1 0 -12.4 0zM733.57 738.03 a6.2 6.2 0 1 0 12.4 0 a6.2 6.2 0 1 0 -12.4 0zM840.96 180.03 a6.2 6.2 0 1 0 12.4 0 a6.2 6.2 0 1 0 -12.4 0zM840.96 242.03 a6.2 6.2 0 1 0 12.4 0 a6.2 6.2 0 1 0 -12.4 0zM787.26 273.03 a6.2 6.2 0 1 0 12.4 0 a6.2 6.2 0 1 0 -12.4 0zM733.57 242.03 a6.2 6.2 0 1 0 12.4 0 a6.2 6.2 0 1 0 -12.4 0zM787.26 521.03 a6.2 6.2 0 1 0 12.4 0 a6.2 6.2 0 1 0 -12.4 0zM840.96 552.03 a6.2 6.2 0 1 0 12.4 0 a6.2 6.2 0 1 0 -12.4 0zM840.96 614.03 a6.2 6.2 0 1 0 12.4 0 a6.2 6.2 0 1 0 -12.4 0zM894.65 -36.97 a6.2 6.2 0 1 0 12.4 0 a6.2 6.2 0 1 0 -12.4 0zM948.35 -5.97 a6.2 6.2 0 1 0 12.4 0 a6.2 6.2 0 1 0 -12.4 0zM948.35 56.03 a6.2 6.2 0 1 0 12.4 0 a6.2 6.2 0 1 0 -12.4 0zM894.65 87.03 a6.2 6.2 0 1 0 12.4 0 a6.2 6.2 0 1 0 -12.4 0zM840.96 56.03 a6.2 6.2 0 1 0 12.4 0 a6.2 6.2 0 1 0 -12.4 0zM840.96 -5.97 a6.2 6.2 0 1 0 12.4 0 a6.2 6.2 0 1 0 -12.4 0zM894.65 149.03 a6.2 6.2 0 1 0 12.4 0 a6.2 6.2 0 1 0 -12.4 0zM948.35 180.03 a6.2 6.2 0 1 0 12.4 0 a6.2 6.2 0 1 0 -12.4 0zM948.35 242.03 a6.2 6.2 0 1 0 12.4 0 a6.2 6.2 0 1 0 -12.4 0zM894.65 273.03 a6.2 6.2 0 1 0 12.4 0 a6.2 6.2 0 1 0 -12.4 0zM894.65 521.03 a6.2 6.2 0 1 0 12.4 0 a6.2 6.2 0 1 0 -12.4 0zM948.35 552.03 a6.2 6.2 0 1 0 12.4 0 a6.2 6.2 0 1 0 -12.4 0zM948.35 614.03 a6.2 6.2 0 1 0 12.4 0 a6.2 6.2 0 1 0 -12.4 0zM894.65 645.03 a6.2 6.2 0 1 0 12.4 0 a6.2 6.2 0 1 0 -12.4 0zM1002.04 645.03 a6.2 6.2 0 1 0 12.4 0 a6.2 6.2 0 1 0 -12.4 0zM1002.04 707.03 a6.2 6.2 0 1 0 12.4 0 a6.2 6.2 0 1 0 -12.4 0zM948.35 738.03 a6.2 6.2 0 1 0 12.4 0 a6.2 6.2 0 1 0 -12.4 0zM894.65 707.03 a6.2 6.2 0 1 0 12.4 0 a6.2 6.2 0 1 0 -12.4 0zM1002.04 -36.97 a6.2 6.2 0 1 0 12.4 0 a6.2 6.2 0 1 0 -12.4 0zM1055.74 -5.97 a6.2 6.2 0 1 0 12.4 0 a6.2 6.2 0 1 0 -12.4 0zM1055.74 56.03 a6.2 6.2 0 1 0 12.4 0 a6.2 6.2 0 1 0 -12.4 0zM1002.04 87.03 a6.2 6.2 0 1 0 12.4 0 a6.2 6.2 0 1 0 -12.4 0zM1109.43 87.03 a6.2 6.2 0 1 0 12.4 0 a6.2 6.2 0 1 0 -12.4 0zM1109.43 149.03 a6.2 6.2 0 1 0 12.4 0 a6.2 6.2 0 1 0 -12.4 0zM1055.74 180.03 a6.2 6.2 0 1 0 12.4 0 a6.2 6.2 0 1 0 -12.4 0zM1002.04 149.03 a6.2 6.2 0 1 0 12.4 0 a6.2 6.2 0 1 0 -12.4 0zM1055.74 242.03 a6.2 6.2 0 1 0 12.4 0 a6.2 6.2 0 1 0 -12.4 0zM1002.04 273.03 a6.2 6.2 0 1 0 12.4 0 a6.2 6.2 0 1 0 -12.4 0zM1109.43 273.03 a6.2 6.2 0 1 0 12.4 0 a6.2 6.2 0 1 0 -12.4 0zM1109.43 335.03 a6.2 6.2 0 1 0 12.4 0 a6.2 6.2 0 1 0 -12.4 0zM1055.74 366.03 a6.2 6.2 0 1 0 12.4 0 a6.2 6.2 0 1 0 -12.4 0zM1002.04 335.03 a6.2 6.2 0 1 0 12.4 0 a6.2 6.2 0 1 0 -12.4 0zM1055.74 428.03 a6.2 6.2 0 1 0 12.4 0 a6.2 6.2 0 1 0 -12.4 0zM1002.04 459.03 a6.2 6.2 0 1 0 12.4 0 a6.2 6.2 0 1 0 -12.4 0zM948.35 428.03 a6.2 6.2 0 1 0 12.4 0 a6.2 6.2 0 1 0 -12.4 0zM948.35 366.03 a6.2 6.2 0 1 0 12.4 0 a6.2 6.2 0 1 0 -12.4 0zM1109.43 459.03 a6.2 6.2 0 1 0 12.4 0 a6.2 6.2 0 1 0 -12.4 0zM1109.43 521.03 a6.2 6.2 0 1 0 12.4 0 a6.2 6.2 0 1 0 -12.4 0zM1055.74 552.03 a6.2 6.2 0 1 0 12.4 0 a6.2 6.2 0 1 0 -12.4 0zM1002.04 521.03 a6.2 6.2 0 1 0 12.4 0 a6.2 6.2 0 1 0 -12.4 0zM1055.74 614.03 a6.2 6.2 0 1 0 12.4 0 a6.2 6.2 0 1 0 -12.4 0zM1109.43 645.03 a6.2 6.2 0 1 0 12.4 0 a6.2 6.2 0 1 0 -12.4 0zM1109.43 707.03 a6.2 6.2 0 1 0 12.4 0 a6.2 6.2 0 1 0 -12.4 0zM1055.74 738.03 a6.2 6.2 0 1 0 12.4 0 a6.2 6.2 0 1 0 -12.4 0zM1163.13 428.03 a6.2 6.2 0 1 0 12.4 0 a6.2 6.2 0 1 0 -12.4 0zM1216.82 459.03 a6.2 6.2 0 1 0 12.4 0 a6.2 6.2 0 1 0 -12.4 0zM1216.82 521.03 a6.2 6.2 0 1 0 12.4 0 a6.2 6.2 0 1 0 -12.4 0zM1163.13 552.03 a6.2 6.2 0 1 0 12.4 0 a6.2 6.2 0 1 0 -12.4 0zM1163.13 614.03 a6.2 6.2 0 1 0 12.4 0 a6.2 6.2 0 1 0 -12.4 0zM1216.82 -36.97 a6.2 6.2 0 1 0 12.4 0 a6.2 6.2 0 1 0 -12.4 0zM1270.52 -5.97 a6.2 6.2 0 1 0 12.4 0 a6.2 6.2 0 1 0 -12.4 0zM1270.52 56.03 a6.2 6.2 0 1 0 12.4 0 a6.2 6.2 0 1 0 -12.4 0zM1216.82 87.03 a6.2 6.2 0 1 0 12.4 0 a6.2 6.2 0 1 0 -12.4 0zM1163.13 56.03 a6.2 6.2 0 1 0 12.4 0 a6.2 6.2 0 1 0 -12.4 0zM1163.13 -5.97 a6.2 6.2 0 1 0 12.4 0 a6.2 6.2 0 1 0 -12.4 0zM1324.21 87.03 a6.2 6.2 0 1 0 12.4 0 a6.2 6.2 0 1 0 -12.4 0zM1324.21 149.03 a6.2 6.2 0 1 0 12.4 0 a6.2 6.2 0 1 0 -12.4 0zM1270.52 180.03 a6.2 6.2 0 1 0 12.4 0 a6.2 6.2 0 1 0 -12.4 0zM1216.82 149.03 a6.2 6.2 0 1 0 12.4 0 a6.2 6.2 0 1 0 -12.4 0zM1216.82 335.03 a6.2 6.2 0 1 0 12.4 0 a6.2 6.2 0 1 0 -12.4 0zM1270.52 366.03 a6.2 6.2 0 1 0 12.4 0 a6.2 6.2 0 1 0 -12.4 0zM1270.52 428.03 a6.2 6.2 0 1 0 12.4 0 a6.2 6.2 0 1 0 -12.4 0zM1163.13 366.03 a6.2 6.2 0 1 0 12.4 0 a6.2 6.2 0 1 0 -12.4 0zM1324.21 459.03 a6.2 6.2 0 1 0 12.4 0 a6.2 6.2 0 1 0 -12.4 0zM1324.21 521.03 a6.2 6.2 0 1 0 12.4 0 a6.2 6.2 0 1 0 -12.4 0zM1270.52 552.03 a6.2 6.2 0 1 0 12.4 0 a6.2 6.2 0 1 0 -12.4 0zM1377.91 56.03 a6.2 6.2 0 1 0 12.4 0 a6.2 6.2 0 1 0 -12.4 0zM1431.6 87.03 a6.2 6.2 0 1 0 12.4 0 a6.2 6.2 0 1 0 -12.4 0zM1431.6 149.03 a6.2 6.2 0 1 0 12.4 0 a6.2 6.2 0 1 0 -12.4 0zM1377.91 180.03 a6.2 6.2 0 1 0 12.4 0 a6.2 6.2 0 1 0 -12.4 0zM1377.91 242.03 a6.2 6.2 0 1 0 12.4 0 a6.2 6.2 0 1 0 -12.4 0zM1431.6 273.03 a6.2 6.2 0 1 0 12.4 0 a6.2 6.2 0 1 0 -12.4 0zM1431.6 335.03 a6.2 6.2 0 1 0 12.4 0 a6.2 6.2 0 1 0 -12.4 0zM1377.91 366.03 a6.2 6.2 0 1 0 12.4 0 a6.2 6.2 0 1 0 -12.4 0zM1324.21 335.03 a6.2 6.2 0 1 0 12.4 0 a6.2 6.2 0 1 0 -12.4 0zM1324.21 273.03 a6.2 6.2 0 1 0 12.4 0 a6.2 6.2 0 1 0 -12.4 0zM1377.91 428.03 a6.2 6.2 0 1 0 12.4 0 a6.2 6.2 0 1 0 -12.4 0zM1431.6 459.03 a6.2 6.2 0 1 0 12.4 0 a6.2 6.2 0 1 0 -12.4 0zM1431.6 521.03 a6.2 6.2 0 1 0 12.4 0 a6.2 6.2 0 1 0 -12.4 0zM1377.91 552.03 a6.2 6.2 0 1 0 12.4 0 a6.2 6.2 0 1 0 -12.4 0zM1377.91 614.03 a6.2 6.2 0 1 0 12.4 0 a6.2 6.2 0 1 0 -12.4 0zM1431.6 645.03 a6.2 6.2 0 1 0 12.4 0 a6.2 6.2 0 1 0 -12.4 0zM1431.6 707.03 a6.2 6.2 0 1 0 12.4 0 a6.2 6.2 0 1 0 -12.4 0zM1377.91 738.03 a6.2 6.2 0 1 0 12.4 0 a6.2 6.2 0 1 0 -12.4 0zM1324.21 707.03 a6.2 6.2 0 1 0 12.4 0 a6.2 6.2 0 1 0 -12.4 0zM1324.21 645.03 a6.2 6.2 0 1 0 12.4 0 a6.2 6.2 0 1 0 -12.4 0zM1485.3 180.03 a6.2 6.2 0 1 0 12.4 0 a6.2 6.2 0 1 0 -12.4 0zM1485.3 242.03 a6.2 6.2 0 1 0 12.4 0 a6.2 6.2 0 1 0 -12.4 0zM1538.99 273.03 a6.2 6.2 0 1 0 12.4 0 a6.2 6.2 0 1 0 -12.4 0zM1538.99 335.03 a6.2 6.2 0 1 0 12.4 0 a6.2 6.2 0 1 0 -12.4 0zM1485.3 366.03 a6.2 6.2 0 1 0 12.4 0 a6.2 6.2 0 1 0 -12.4 0zM1485.3 428.03 a6.2 6.2 0 1 0 12.4 0 a6.2 6.2 0 1 0 -12.4 0zM1485.3 614.03 a6.2 6.2 0 1 0 12.4 0 a6.2 6.2 0 1 0 -12.4 0zM1538.99 645.03 a6.2 6.2 0 1 0 12.4 0 a6.2 6.2 0 1 0 -12.4 0zM1538.99 707.03 a6.2 6.2 0 1 0 12.4 0 a6.2 6.2 0 1 0 -12.4 0zM1485.3 738.03 a6.2 6.2 0 1 0 12.4 0 a6.2 6.2 0 1 0 -12.4 0zM1485.3 800.03 a6.2 6.2 0 1 0 12.4 0 a6.2 6.2 0 1 0 -12.4 0zM1431.6 831.03 a6.2 6.2 0 1 0 12.4 0 a6.2 6.2 0 1 0 -12.4 0zM1377.91 800.03 a6.2 6.2 0 1 0 12.4 0 a6.2 6.2 0 1 0 -12.4 0z" fill="rgba(0, 29, 61, 1)"></path></g><defs><mask id="SvgjsMask1849"><rect width="1440" height="741" fill="#ffffff"></rect></mask><radialGradient cx="0%" cy="100%" r="1619.47" gradientUnits="userSpaceOnUse" id="SvgjsRadialGradient1850"><stop stop-color="#0e2a47" offset="0"></stop><stop stop-color="rgba(0, 8, 20, 1)" offset="0.69"></stop></radialGradient></defs></svg>